<svg id="visual" viewBox="0 0 1399 932" width="1399" height="932" xmlns="http://www.w3.org/2000/svg" xmlns:xlink="http://www.w3.org/1999/xlink" version="1.1"><path d="M0 647L117 647L117 536L233 536L233 360L350 360L350 287L466 287L466 513L583 513L583 637L700 637L700 315L816 315L816 586L933 586L933 564L1049 564L1049 336L1166 336L1166 328L1282 328L1282 587L1399 587L1399 362L1399 933L1399 933L1282 933L1282 933L1166 933L1166 933L1049 933L1049 933L933 933L933 933L816 933L816 933L700 933L700 933L583 933L583 933L466 933L466 933L350 933L350 933L233 933L233 933L117 933L117 933L0 933Z" fill="#9900ff"></path><path d="M0 753L117 753L117 451L233 451L233 615L350 615L350 448L466 448L466 534L583 534L583 767L700 767L700 655L816 655L816 695L933 695L933 712L1049 712L1049 672L1166 672L1166 580L1282 580L1282 591L1399 591L1399 601L1399 933L1399 933L1282 933L1282 933L1166 933L1166 933L1049 933L1049 933L933 933L933 933L816 933L816 933L700 933L700 933L583 933L583 933L466 933L466 933L350 933L350 933L233 933L233 933L117 933L117 933L0 933Z" fill="#8402ee"></path><path d="M0 687L117 687L117 580L233 580L233 507L350 507L350 726L466 726L466 647L583 647L583 727L700 727L700 692L816 692L816 483L933 483L933 657L1049 657L1049 727L1166 727L1166 791L1282 791L1282 740L1399 740L1399 795L1399 933L1399 933L1282 933L1282 933L1166 933L1166 933L1049 933L1049 933L933 933L933 933L816 933L816 933L700 933L700 933L583 933L583 933L466 933L466 933L350 933L350 933L233 933L233 933L117 933L117 933L0 933Z" fill="#6f03dd"></path><path d="M0 534L117 534L117 728L233 728L233 648L350 648L350 755L466 755L466 572L583 572L583 686L700 686L700 664L816 664L816 591L933 591L933 707L1049 707L1049 703L1166 703L1166 635L1282 635L1282 810L1399 810L1399 715L1399 933L1399 933L1282 933L1282 933L1166 933L1166 933L1049 933L1049 933L933 933L933 933L816 933L816 933L700 933L700 933L583 933L583 933L466 933L466 933L350 933L350 933L233 933L233 933L117 933L117 933L0 933Z" fill="#5a03cc"></path><path d="M0 744L117 744L117 633L233 633L233 609L350 609L350 771L466 771L466 673L583 673L583 860L700 860L700 696L816 696L816 799L933 799L933 812L1049 812L1049 848L1166 848L1166 675L1282 675L1282 714L1399 714L1399 865L1399 933L1399 933L1282 933L1282 933L1166 933L1166 933L1049 933L1049 933L933 933L933 933L816 933L816 933L700 933L700 933L583 933L583 933L466 933L466 933L350 933L350 933L233 933L233 933L117 933L117 933L0 933Z" fill="#4502bb"></path><path d="M0 854L117 854L117 821L233 821L233 713L350 713L350 812L466 812L466 694L583 694L583 840L700 840L700 835L816 835L816 757L933 757L933 747L1049 747L1049 816L1166 816L1166 883L1282 883L1282 883L1399 883L1399 845L1399 933L1399 933L1282 933L1282 933L1166 933L1166 933L1049 933L1049 933L933 933L933 933L816 933L816 933L700 933L700 933L583 933L583 933L466 933L466 933L350 933L350 933L233 933L233 933L117 933L117 933L0 933Z" fill="#2f01a9"></path><path d="M0 830L117 830L117 780L233 780L233 879L350 879L350 859L466 859L466 779L583 779L583 876L700 876L700 770L816 770L816 778L933 778L933 813L1049 813L1049 824L1166 824L1166 844L1282 844L1282 806L1399 806L1399 895L1399 933L1399 933L1282 933L1282 933L1166 933L1166 933L1049 933L1049 933L933 933L933 933L816 933L816 933L700 933L700 933L583 933L583 933L466 933L466 933L350 933L350 933L233 933L233 933L117 933L117 933L0 933Z" fill="#140098"></path></svg>