<?xml version="1.0" encoding="utf-8"?>
<!-- Generator: Adobe Illustrator 26.5.0, SVG Export Plug-In . SVG Version: 6.00 Build 0)  -->
<svg version="1.1" xmlns="http://www.w3.org/2000/svg" xmlns:xlink="http://www.w3.org/1999/xlink" x="0px" y="0px"
	 viewBox="0 0 1920 1080" style="enable-background:new 0 0 1920 1080;" xml:space="preserve">
<style type="text/css">
	.st0{fill:#1B1464;stroke:#000000;stroke-miterlimit:10;}
	.st1{fill:#9373E0;stroke:#000000;stroke-width:0.9714;stroke-miterlimit:10;}
	.st2{fill:#9373E0;stroke:#000000;stroke-miterlimit:10;}
	.st3{display:none;}
	.st4{display:inline;fill:#621EA8;stroke:#000000;stroke-miterlimit:10;}
	.st5{display:inline;fill:#FFFFFF;stroke:#000000;stroke-miterlimit:10;}
	.st6{display:inline;fill:#FFFFFF;stroke:#000000;stroke-width:0.9714;stroke-miterlimit:10;}
	.st7{display:inline;fill:#FFFFFF;stroke:#000000;stroke-width:1.0093;stroke-miterlimit:10;}
	.st8{display:inline;fill:#9373E0;stroke:#000000;stroke-miterlimit:10;}
	.st9{display:inline;fill:#1B1464;stroke:#000000;stroke-width:0.8735;stroke-miterlimit:10;}
	.st10{display:inline;fill:#1B1464;stroke:#000000;stroke-width:0.9269;stroke-miterlimit:10;}
	.st11{display:inline;fill:#1B1464;stroke:#000000;stroke-width:0.8289;stroke-miterlimit:10;}
	.st12{display:inline;fill:#1B1464;stroke:#000000;stroke-width:1.0316;stroke-miterlimit:10;}
</style>
<g id="Layer_5">
	<polyline class="st0" points="0,574.64 345.5,574.64 345.5,393.5 566.5,393.5 566.5,110.49 739.5,110.49 739.5,797.5 939.5,797.5 
		939.5,540 1175.51,540 1175.51,919.5 1386.5,919.5 1386.5,406.5 1571.5,406.5 1571.5,708.5 1675.5,708.5 1675.5,250.5 
		1764.5,250.5 1764.5,623.5 1973.5,623.5 1973.5,1166.5 -82.5,1166.5 -82.5,575.5 	"/>
</g>
<g id="Layer_1">
	<rect x="1695.5" y="270.5" class="st1" width="52" height="33.97"/>
	<rect x="1695.5" y="331.83" class="st1" width="52" height="33.97"/>
	<rect x="1695.5" y="393.16" class="st1" width="52" height="33.97"/>
	<rect x="1695.5" y="454.49" class="st1" width="52" height="33.97"/>
	<rect x="1696.5" y="517.71" class="st1" width="52" height="33.97"/>
	<rect x="1696.5" y="579.04" class="st1" width="52" height="33.97"/>
	<rect x="1696.5" y="640.38" class="st1" width="52" height="33.97"/>
	<rect x="1696.5" y="701.71" class="st1" width="52" height="33.97"/>
	<rect x="1696.5" y="763.04" class="st1" width="52" height="33.97"/>
	<rect x="1696.5" y="824.37" class="st1" width="52" height="33.97"/>
	<rect x="1696.5" y="885.7" class="st1" width="52" height="33.97"/>
	<rect x="1696.5" y="947.03" class="st1" width="52" height="33.97"/>
	<rect x="1496.5" y="439.5" class="st2" width="52" height="36"/>
	<rect x="1496.5" y="504.5" class="st2" width="52" height="36"/>
	<rect x="1496.5" y="569.5" class="st2" width="52" height="36"/>
	<rect x="1496.5" y="634.5" class="st2" width="52" height="36"/>
	<rect x="1497.5" y="701.5" class="st2" width="52" height="36"/>
	<rect x="1497.5" y="766.5" class="st2" width="52" height="36"/>
	<rect x="1497.5" y="831.5" class="st2" width="52" height="36"/>
	<rect x="1497.5" y="896.5" class="st2" width="52" height="36"/>
	<rect x="1497.5" y="961.5" class="st2" width="52" height="36"/>
	<rect x="1497.5" y="1026.5" class="st2" width="52" height="36"/>
	<rect x="1497.5" y="1091.5" class="st2" width="52" height="36"/>
	<rect x="1415.5" y="438.5" class="st2" width="52" height="36"/>
	<rect x="1415.5" y="503.5" class="st2" width="52" height="36"/>
	<rect x="1415.5" y="568.5" class="st2" width="52" height="36"/>
	<rect x="1415.5" y="633.5" class="st2" width="52" height="36"/>
	<rect x="1416.5" y="700.5" class="st2" width="52" height="36"/>
	<rect x="1416.5" y="765.5" class="st2" width="52" height="36"/>
	<rect x="1416.5" y="830.5" class="st2" width="52" height="36"/>
	<rect x="1416.5" y="895.5" class="st2" width="52" height="36"/>
	<rect x="1416.5" y="960.5" class="st2" width="52" height="36"/>
	<rect x="1416.5" y="1025.5" class="st2" width="52" height="36"/>
	<rect x="1416.5" y="1090.5" class="st2" width="52" height="36"/>
	<rect x="590.5" y="145.5" class="st2" width="52" height="36"/>
	<rect x="590.5" y="210.5" class="st2" width="52" height="36"/>
	<rect x="590.5" y="275.5" class="st2" width="52" height="36"/>
	<rect x="590.5" y="340.5" class="st2" width="52" height="36"/>
	<rect x="591.5" y="407.5" class="st2" width="52" height="36"/>
	<rect x="591.5" y="472.5" class="st2" width="52" height="36"/>
	<rect x="591.5" y="537.5" class="st2" width="52" height="36"/>
	<rect x="591.5" y="602.5" class="st2" width="52" height="36"/>
	<rect x="591.5" y="667.5" class="st2" width="52" height="36"/>
	<rect x="591.5" y="732.5" class="st2" width="52" height="36"/>
	<rect x="591.5" y="797.5" class="st2" width="52" height="36"/>
	<rect x="591.5" y="862.5" class="st2" width="52" height="36"/>
	<rect x="666.5" y="144.5" class="st2" width="52" height="36"/>
	<rect x="666.5" y="209.5" class="st2" width="52" height="36"/>
	<rect x="666.5" y="274.5" class="st2" width="52" height="36"/>
	<rect x="666.5" y="339.5" class="st2" width="52" height="36"/>
	<rect x="667.5" y="406.5" class="st2" width="52" height="36"/>
	<rect x="667.5" y="471.5" class="st2" width="52" height="36"/>
	<rect x="667.5" y="536.5" class="st2" width="52" height="36"/>
	<rect x="667.5" y="601.5" class="st2" width="52" height="36"/>
	<rect x="667.5" y="666.5" class="st2" width="52" height="36"/>
	<rect x="667.5" y="731.5" class="st2" width="52" height="36"/>
	<rect x="667.5" y="796.5" class="st2" width="52" height="36"/>
	<rect x="667.5" y="861.5" class="st2" width="52" height="36"/>
	<rect x="31.5" y="610.5" class="st2" width="52" height="36"/>
	<rect x="31.5" y="675.5" class="st2" width="52" height="36"/>
	<rect x="31.5" y="740.5" class="st2" width="52" height="36"/>
	<rect x="31.5" y="805.5" class="st2" width="52" height="36"/>
	<rect x="32.5" y="872.5" class="st2" width="52" height="36"/>
	<rect x="32.5" y="937.5" class="st2" width="52" height="36"/>
	<rect x="32.5" y="1002.5" class="st2" width="52" height="36"/>
	<rect x="107.5" y="609.5" class="st2" width="52" height="36"/>
	<rect x="107.5" y="674.5" class="st2" width="52" height="36"/>
	<rect x="107.5" y="739.5" class="st2" width="52" height="36"/>
	<rect x="107.5" y="804.5" class="st2" width="52" height="36"/>
	<rect x="108.5" y="871.5" class="st2" width="52" height="36"/>
	<rect x="108.5" y="936.5" class="st2" width="52" height="36"/>
	<rect x="108.5" y="1001.5" class="st2" width="52" height="36"/>
	<rect x="199.5" y="610.5" class="st2" width="52" height="36"/>
	<rect x="199.5" y="675.5" class="st2" width="52" height="36"/>
	<rect x="199.5" y="740.5" class="st2" width="52" height="36"/>
	<rect x="199.5" y="805.5" class="st2" width="52" height="36"/>
	<rect x="200.5" y="872.5" class="st2" width="52" height="36"/>
	<rect x="200.5" y="937.5" class="st2" width="52" height="36"/>
	<rect x="200.5" y="1002.5" class="st2" width="52" height="36"/>
	<rect x="275.5" y="609.5" class="st2" width="52" height="36"/>
	<rect x="275.5" y="674.5" class="st2" width="52" height="36"/>
	<rect x="275.5" y="739.5" class="st2" width="52" height="36"/>
	<rect x="275.5" y="804.5" class="st2" width="52" height="36"/>
	<rect x="276.5" y="871.5" class="st2" width="52" height="36"/>
	<rect x="276.5" y="936.5" class="st2" width="52" height="36"/>
	<rect x="276.5" y="1001.5" class="st2" width="52" height="36"/>
	<rect x="372.5" y="424.5" class="st2" width="173" height="33"/>
	<rect x="372.5" y="491.5" class="st2" width="173" height="33"/>
	<rect x="967.5" y="568.5" class="st2" width="77" height="77"/>
	<rect x="1069.5" y="568.5" class="st2" width="77" height="77"/>
	<rect x="967.5" y="688.5" class="st2" width="77" height="77"/>
	<rect x="1069.5" y="688.5" class="st2" width="77" height="77"/>
	<rect x="1776.5" y="640.38" class="st1" width="52" height="33.97"/>
	<rect x="1776.5" y="701.71" class="st1" width="52" height="33.97"/>
	<rect x="1776.5" y="763.04" class="st1" width="52" height="33.97"/>
	<rect x="1776.5" y="824.37" class="st1" width="52" height="33.97"/>
	<rect x="1776.5" y="885.7" class="st1" width="52" height="33.97"/>
	<rect x="1776.5" y="947.03" class="st1" width="52" height="33.97"/>
	<rect x="1856.5" y="640.38" class="st1" width="52" height="33.97"/>
	<rect x="1856.5" y="701.71" class="st1" width="52" height="33.97"/>
	<rect x="1856.5" y="763.04" class="st1" width="52" height="33.97"/>
	<rect x="1856.5" y="824.37" class="st1" width="52" height="33.97"/>
	<rect x="1856.5" y="885.7" class="st1" width="52" height="33.97"/>
	<rect x="1856.5" y="947.03" class="st1" width="52" height="33.97"/>
	<rect x="1696.5" y="1005.7" class="st1" width="52" height="33.97"/>
	<rect x="1776.5" y="1005.7" class="st1" width="52" height="33.97"/>
	<rect x="1856.5" y="1005.7" class="st1" width="52" height="33.97"/>
</g>
<g id="Layer_2" class="st3">
	<polyline class="st4" points="-190,1207.71 2000.5,1207.71 2000.5,564.5 1610.5,564.5 1610.5,298.5 1445.5,298.5 1445.5,683.5 
		984.5,683.5 984.5,417.5 822.17,417.5 822.17,802.5 599.5,802.5 599.5,110.49 488.7,110.49 488.7,549.5 399.5,549.5 399.5,244.5 
		298.5,244.5 298.5,713.5 220.19,713.5 220.19,272.5 51.5,272.5 -190,272.5 	"/>
	<rect x="1802.5" y="586.5" class="st5" width="89" height="210"/>
	<rect x="1802.5" y="832.5" class="st5" width="89" height="210"/>
</g>
<g id="Layer_6" class="st3">
	<rect x="32.5" y="311.5" class="st6" width="152" height="391"/>
	<rect x="355.5" y="389.5" class="st6" width="20" height="133"/>
	<rect x="317.5" y="389.5" class="st6" width="26" height="54"/>
	<rect x="317.5" y="467.5" class="st6" width="26" height="54"/>
	<rect x="317.5" y="293.5" class="st6" width="55" height="65"/>
	<rect x="317.5" y="555.5" class="st6" width="58" height="137"/>
	<rect x="501.5" y="126.5" class="st6" width="21" height="935"/>
	<rect x="535.5" y="126.5" class="st6" width="21" height="935"/>
	<rect x="569.5" y="126.5" class="st6" width="21" height="935"/>
	<rect x="842.5" y="568.5" class="st6" width="125" height="96"/>
	<rect x="842.5" y="694.5" class="st6" width="125" height="95"/>
	<rect x="843.5" y="443.5" class="st6" width="125" height="96"/>
	<rect x="1005.5" y="694.5" class="st7" width="411" height="95"/>
	<rect x="1463.5" y="311.5" class="st6" width="30" height="750"/>
	<rect x="1513.5" y="311.5" class="st6" width="30" height="750"/>
	<rect x="1563.5" y="311.5" class="st6" width="30" height="750"/>
	<rect x="1649.5" y="586.5" class="st6" width="127" height="458"/>
</g>
<g id="Layer_3" class="st3">
	<polyline class="st8" points="-44.5,849.5 357.5,849.5 357.5,681.96 611.5,681.96 611.5,840.5 759.36,840.5 759.36,594.5 
		1036.5,594.5 1036.5,783.75 1212.5,783.75 1212.5,638.5 1323.64,638.5 1323.64,849.5 1512.5,849.5 1512.5,648.5 1782.57,648.5 
		1782.57,762.5 2009.5,762.5 2009.5,1189.11 -44.5,1189.11 	"/>
</g>
<g id="Layer_8" class="st3">
	<rect x="1536.3" y="882.5" class="st9" width="77.83" height="165"/>
	<rect x="1675.17" y="884.5" class="st9" width="77.83" height="165"/>
	<rect x="1536.3" y="682.5" class="st9" width="77.83" height="165"/>
	<rect x="1675.17" y="684.5" class="st9" width="77.83" height="165"/>
	<rect x="1229.3" y="853.21" class="st10" width="77.83" height="185.79"/>
	<rect x="1229.3" y="652" class="st10" width="77.83" height="185.79"/>
	<rect x="376.3" y="899.11" class="st11" width="77.83" height="148.59"/>
	<rect x="515.17" y="900.91" class="st11" width="77.83" height="148.59"/>
	<rect x="376.3" y="719" class="st11" width="77.83" height="148.59"/>
	<rect x="515.17" y="720.8" class="st11" width="77.83" height="148.59"/>
	<rect x="784.18" y="860.63" class="st12" width="93.32" height="191.92"/>
	<rect x="922.68" y="862.95" class="st12" width="93.32" height="191.92"/>
	<rect x="784.18" y="628" class="st12" width="93.32" height="191.92"/>
	<rect x="922.68" y="630.33" class="st12" width="93.32" height="191.92"/>
</g>
<g id="Layer_4" class="st3">
	<polyline class="st8" points="-22.5,700.5 131.5,700.5 131.5,953.5 333.5,953.5 333.5,796.82 475.93,796.82 475.93,895.04 
		543.5,895.04 543.5,573.5 699.14,573.5 699.14,739.5 902.71,739.5 902.71,545.5 965.21,545.5 965.21,749.5 1175.5,749.5 
		1175.5,953.5 1286.5,953.5 1286.5,721.5 1413.5,721.5 1413.5,607.5 1484.86,607.5 1484.86,712.5 1752.5,712.5 1752.5,607.5 
		1881.5,607.5 1881.5,898.61 1990.5,898.61 1990.5,1162.5 -43.5,1162.5 	"/>
</g>
</svg>
